<?xml version="1.0" encoding="utf-8"?>
<!-- Generator: Adobe Illustrator 22.1.0, SVG Export Plug-In . SVG Version: 6.00 Build 0)  -->
<svg version="1.1" id="Layer_1" xmlns="http://www.w3.org/2000/svg" xmlns:xlink="http://www.w3.org/1999/xlink" x="0px" y="0px"
	 viewBox="0 0 512 512" style="enable-background:new 0 0 512 512;" xml:space="preserve">
<g>
	<path d="M481,112l-0.2,8.6c-19.8,0.6-31.6,11.1-39.2,28.3c-17.6,40.6-72.6,168.7-109.2,252.1h-9.6l-57.6-135.8
		c-22.8,44.7-48,91.4-69.7,135.8c-0.2,0.2-10.5,0-10.5-0.2c-33-77.1-67.6-153.7-100.6-231c-8-18.8-34.7-49.2-53.1-49
		c0-2.2-0.2-7-0.2-10h113.8v9.8c-13.5,0.8-37.1,9.4-30.4,24c15.4,34.9,72.8,168.9,88.3,202.9c10.5-20.9,40.6-76.8,52.9-100.4
		c-9.8-19.9-41.2-94.1-51.2-112.5c-6.8-12.5-25.4-13.6-39.2-13.8v-9.8l100.2,0.2v9.2c-13.6,0.4-26.8,5.5-20.7,18.3
		c13.3,28.1,21.5,47.9,33.8,73.6c3.9-7.6,24.4-48.8,33.8-70.9c6.3-14.5-2.7-20.1-27.1-20.7c0.2-2.5,0-7.2,0.2-9.6
		c31.2-0.2,78.1-0.2,86.5-0.4v9.6c-15.8,0.6-32.2,9-40.8,22.3l-41.6,86.3c4.5,11.3,44.5,100.4,48.6,110.2l86-198.7
		c-6-16.2-25.6-19.8-33.2-19.9v-9.8l89.8,0.8C480.9,111.7,481,112,481,112z"/>
</g>
</svg>
